<?xml version="1.0" standalone="no"?>
<!DOCTYPE svg PUBLIC "-//W3C//DTD SVG 20010904//EN"
 "http://www.w3.org/TR/2001/REC-SVG-20010904/DTD/svg10.dtd">
<svg version="1.0" xmlns="http://www.w3.org/2000/svg"
 width="300.000000pt" height="298.000000pt" viewBox="0 0 300.000000 298.000000"
 preserveAspectRatio="xMidYMid meet">
<metadata>
Created by potrace 1.10, written by Peter Selinger 2001-2011
</metadata>
<g transform="translate(0.000000,298.000000) scale(0.100000,-0.100000)"
fill="#000000" stroke="none">
<path d="M1390 2969 c-495 -30 -969 -350 -1201 -812 -172 -342 -201 -761 -78
-1130 165 -497 588 -873 1109 -984 122 -26 468 -26 590 0 584 125 1032 573
1157 1157 15 69 18 128 17 310 0 218 -2 229 -31 340 -76 287 -192 491 -397
696 -247 246 -581 404 -891 420 -55 2 -113 6 -130 7 -16 2 -82 0 -145 -4z
m425 -48 c199 -44 413 -141 566 -256 106 -79 268 -247 334 -345 111 -166 193
-365 232 -565 27 -135 24 -406 -5 -541 -65 -303 -188 -530 -402 -744 -212
-213 -441 -337 -744 -402 -145 -31 -417 -31 -562 0 -305 66 -532 188 -744 401
-214 214 -337 443 -402 745 -29 136 -31 416 -5 551 52 257 172 502 339 691
172 194 379 332 624 417 85 29 133 41 294 71 14 2 106 3 205 1 133 -3 204 -9
270 -24z"/>
<path d="M1432 2757 c-12 -13 -22 -25 -22 -28 0 -2 28 -4 63 -4 55 0 62 -2 62
-20 0 -16 -8 -21 -43 -23 -24 -2 -50 2 -58 9 -8 6 -17 9 -20 6 -11 -11 16 -45
46 -57 25 -10 34 -10 55 4 23 15 28 15 47 1 76 -53 154 51 84 112 -41 35 -85
28 -70 -11 3 -9 21 -16 42 -18 29 -2 37 -7 37 -23 0 -17 -8 -20 -47 -23 -46
-3 -48 -2 -48 23 0 35 -42 75 -78 75 -17 0 -37 -9 -50 -23z"/>
<path d="M1266 2738 c-27 -25 -46 -78 -27 -78 6 0 11 7 11 15 0 20 32 35 75
35 32 0 36 -3 33 -22 -2 -17 -12 -24 -33 -28 -21 -4 -31 -11 -33 -28 -5 -31
37 -30 66 1 31 33 29 80 -4 106 -34 27 -57 26 -88 -1z"/>
<path d="M1708 2730 c-17 -17 -28 -33 -25 -37 3 -3 13 2 23 11 12 12 25 15 52
10 77 -13 80 -57 5 -58 -27 -1 -39 -6 -41 -18 -4 -23 33 -33 68 -18 40 17 56
59 36 98 -27 52 -73 56 -118 12z"/>
<path d="M2152 2718 c-19 -19 -14 -63 8 -83 16 -15 23 -16 33 -6 9 10 7 16
-10 31 -26 21 -31 50 -8 50 8 0 29 -16 48 -35 19 -19 42 -35 53 -35 17 0 16 2
-4 16 -12 8 -22 23 -22 33 0 26 -20 41 -55 41 -17 0 -36 -5 -43 -12z"/>
<path d="M1103 2694 c-17 -17 -32 -24 -46 -20 -29 7 -76 -20 -83 -50 -8 -32 1
-41 20 -21 20 19 82 40 96 32 31 -19 -24 -65 -80 -65 -28 0 -25 -18 4 -31 33
-16 72 -4 93 27 14 21 15 31 5 56 -10 28 -9 30 25 44 41 18 67 15 71 -7 2 -9
-11 -22 -33 -32 -38 -18 -43 -28 -20 -47 12 -10 20 -6 46 19 25 25 30 37 25
59 -15 61 -79 80 -123 36z"/>
<path d="M1880 2690 c-45 -45 -11 -120 53 -120 55 0 87 52 62 99 -23 46 -80
56 -115 21z m80 -35 c33 -17 37 -27 16 -44 -21 -17 -90 10 -94 37 -3 18 2 22
23 22 14 0 39 -7 55 -15z"/>
<path d="M2055 2605 c-31 -30 -31 -54 -4 -89 18 -23 28 -27 62 -24 41 3 66 28
28 28 -21 0 -91 37 -91 48 0 4 5 14 10 22 8 13 16 12 55 -9 25 -13 45 -28 45
-32 0 -5 5 -9 10 -9 6 0 10 9 10 20 0 29 -44 70 -75 70 -14 0 -37 -11 -50 -25z"/>
<path d="M824 2555 c-29 -29 -29 -68 0 -73 14 -3 17 0 13 11 -4 11 5 23 27 36
43 27 54 27 30 0 l-19 -22 30 7 30 6 -24 -20 c-14 -12 -38 -24 -53 -27 -39 -8
-30 -27 15 -31 26 -2 42 3 56 17 27 27 27 55 0 92 -26 38 -70 39 -105 4z"/>
<path d="M2212 2507 c-41 -44 -23 -104 36 -122 45 -13 101 50 86 97 -10 32
-29 14 -29 -27 0 -22 -5 -40 -13 -42 -7 -3 -10 1 -7 9 8 21 -30 52 -55 45 -16
-4 -20 -1 -18 11 2 11 13 17 28 17 28 0 50 11 50 26 0 19 -57 9 -78 -14z"/>
<path d="M701 2461 c-9 -6 -10 -11 -2 -15 17 -11 2 -28 -19 -21 -33 10 -35
-50 -2 -87 21 -25 77 -23 102 2 25 25 27 81 3 102 -23 20 -65 29 -82 19z m70
-37 c10 -13 7 -20 -22 -50 -24 -24 -41 -33 -52 -28 -23 8 -22 34 1 34 23 0 42
19 42 42 0 22 13 23 31 2z"/>
<path d="M2314 2379 c-75 -76 -93 -86 -124 -69 -27 15 -26 48 3 53 19 3 20 4
4 11 -25 12 -69 -20 -65 -46 4 -26 45 -58 79 -61 20 -2 42 16 107 85 99 103
95 127 -4 27z"/>
<path d="M910 2420 c-24 -24 -25 -38 -4 -68 29 -42 104 -18 104 35 0 25 -30
53 -58 53 -12 0 -31 -9 -42 -20z m78 -20 c3 -7 0 -10 -6 -6 -16 10 -52 -11
-52 -30 0 -8 -4 -12 -10 -9 -18 11 -11 30 18 47 30 19 43 19 50 -2z"/>
<path d="M2363 2383 c-22 -8 -14 -20 10 -16 16 3 32 -6 57 -31 32 -34 33 -37
17 -53 -16 -16 -18 -15 -45 10 -19 18 -35 25 -45 21 -40 -15 3 -64 55 -64 57
0 87 68 52 118 -11 16 -25 22 -52 21 -20 0 -43 -3 -49 -6z"/>
<path d="M1420 2350 c-383 -46 -690 -338 -750 -713 -17 -104 -8 -280 20 -377
27 -94 94 -222 162 -308 100 -125 283 -243 448 -289 93 -25 339 -25 430 1 173
49 347 162 451 293 65 82 139 224 164 318 25 92 31 293 11 388 -56 271 -241
505 -489 617 -127 57 -312 86 -447 70z m323 -54 c155 -46 266 -114 379 -234
326 -346 291 -896 -77 -1205 -83 -70 -219 -139 -330 -168 -112 -29 -289 -29
-400 0 -355 94 -596 382 -630 751 -14 146 33 343 115 481 75 126 214 256 345
322 56 28 168 64 242 77 86 16 259 4 356 -24z"/>
<path d="M1441 2221 c-27 -28 -27 -28 -50 -10 -44 36 -120 14 -140 -41 -9 -27
-13 -30 -30 -21 -58 31 -131 -8 -131 -69 0 -30 -2 -31 -29 -25 -35 7 -85 -15
-102 -46 -6 -12 -9 -37 -7 -55 3 -30 1 -34 -18 -34 -31 0 -81 -44 -87 -77 -3
-16 1 -40 8 -56 13 -25 12 -27 -11 -33 -57 -14 -83 -98 -45 -145 18 -23 18
-23 -10 -50 -21 -20 -29 -36 -29 -62 0 -38 32 -87 57 -87 11 0 8 -8 -11 -31
-14 -17 -26 -40 -26 -52 0 -34 37 -86 65 -93 19 -5 24 -11 19 -23 -15 -37 -16
-53 -4 -82 13 -30 54 -59 85 -59 11 0 15 -10 15 -39 0 -27 7 -46 25 -66 22
-23 32 -26 69 -23 41 3 43 2 44 -26 2 -61 74 -101 131 -71 30 15 31 15 31 -5
0 -12 12 -32 26 -45 33 -30 82 -33 116 -6 l24 20 28 -30 c39 -41 97 -41 135 0
27 28 27 28 50 10 13 -11 36 -19 51 -19 35 0 90 44 90 72 0 15 4 18 18 13 9
-5 31 -10 48 -12 44 -7 94 37 94 81 0 31 1 32 36 28 20 -3 46 1 59 8 28 15 49
61 43 94 -4 21 0 25 28 31 44 8 74 47 74 96 0 21 -5 41 -11 45 -8 4 1 14 23
25 60 31 74 103 29 148 -18 18 -18 19 5 30 50 22 55 113 9 149 l-24 19 20 40
c16 32 17 45 8 70 -11 33 -47 63 -74 63 -15 0 -15 2 -1 22 19 27 20 48 4 83
-13 28 -55 55 -85 55 -16 0 -18 6 -15 35 3 22 -2 45 -12 60 -19 28 -71 46
-103 34 -21 -8 -23 -5 -23 25 0 62 -83 106 -135 72 -24 -16 -25 -16 -25 4 0
61 -106 94 -152 48 -16 -16 -23 -18 -26 -9 -19 57 -106 70 -151 22z m121 -11
c25 -26 29 -36 24 -62 -3 -17 -6 -36 -6 -43 0 -7 -12 -16 -26 -19 -14 -4 -43
-18 -65 -31 -21 -14 -40 -25 -42 -25 -3 0 -7 34 -11 76 -6 66 -5 79 11 96 40
45 76 47 115 8z m176 -27 c26 -28 25 -52 -2 -114 l-14 -34 -1 30 c-1 19 -9 35
-21 43 -11 7 -20 19 -20 26 0 8 -10 18 -22 22 -16 5 -27 1 -40 -16 l-18 -22 0
24 c0 44 47 82 90 73 14 -3 36 -18 48 -32z m-350 10 c15 -13 24 -44 36 -117
15 -90 15 -101 0 -117 -8 -9 -14 -23 -13 -31 2 -7 -7 -28 -19 -47 -19 -31 -22
-33 -28 -15 -4 10 -29 72 -55 136 -27 65 -49 126 -49 137 0 10 9 30 21 45 25
31 76 35 107 9z m-159 -68 c10 -10 121 -250 121 -262 0 -1 -7 0 -15 3 -11 5
-15 -1 -15 -22 0 -29 -15 -62 -24 -54 -42 44 -196 258 -196 274 0 65 83 105
129 61z m666 -1 c14 -15 25 -37 25 -49 0 -23 -193 -289 -203 -279 -3 4 -3 19
0 35 5 28 4 29 -26 23 l-31 -6 21 48 c12 27 25 53 30 59 5 5 9 16 9 26 0 27
58 147 77 158 32 19 73 12 98 -15z m-225 -25 c0 -11 7 -19 16 -19 14 0 16 -9
12 -55 -4 -46 -10 -60 -35 -83 -44 -39 -54 -64 -43 -101 7 -27 1 -50 -40 -154
-27 -67 -49 -119 -50 -115 -2 37 63 473 71 479 7 4 9 15 5 24 -9 24 34 68 51
53 7 -6 13 -19 13 -29z m-94 -47 c-10 -16 -57 -440 -52 -469 2 -18 1 -33 -4
-33 -4 0 -11 24 -15 53 -3 28 -15 117 -26 196 -11 81 -17 161 -14 185 6 37 11
43 53 63 43 19 69 22 58 5z m455 -31 c33 -34 37 -60 12 -89 -24 -28 -282 -232
-294 -232 -5 0 -4 11 1 26 13 34 13 42 -4 46 -9 2 18 45 80 128 53 69 102 131
111 138 27 20 63 14 94 -17z m-943 2 c11 -10 61 -70 111 -135 65 -82 91 -124
91 -144 0 -15 -3 -24 -7 -21 -3 4 -12 2 -19 -4 -10 -9 -45 13 -151 94 -130 98
-138 106 -141 142 -6 69 66 111 116 68z m362 -115 c0 -18 11 -105 25 -192 14
-88 22 -162 19 -165 -3 -3 -11 -6 -17 -6 -7 0 -12 -7 -12 -15 0 -12 -14 -15
-66 -15 -52 0 -65 3 -61 14 3 7 -1 17 -9 21 -33 21 2 17 60 -6 34 -14 65 -23
67 -21 3 3 -37 21 -88 42 -51 20 -98 41 -104 46 -15 12 -26 51 -12 43 6 -4 13
-2 17 4 4 6 42 -16 94 -55 48 -36 90 -63 93 -61 5 6 -164 138 -177 138 -5 0
-9 5 -9 10 0 6 7 10 15 10 9 0 19 9 23 20 7 18 18 7 82 -74 41 -52 77 -93 79
-90 4 4 -99 146 -137 187 -14 15 -21 27 -14 27 6 0 14 16 18 35 3 20 11 34 16
33 5 -2 33 -57 61 -123 29 -66 59 -129 65 -140 12 -19 12 -18 6 5 -4 14 -28
75 -53 136 l-47 110 28 45 c15 24 26 50 23 57 -2 6 0 12 5 12 6 0 10 -15 10
-32z m215 -21 c-17 -41 -20 -44 -28 -23 -6 14 31 72 39 63 2 -2 -3 -20 -11
-40z m474 -3 c27 -34 27 -76 1 -99 -28 -26 -274 -128 -278 -116 -2 6 -13 4
-27 -5 -27 -18 -40 -13 -48 15 -4 16 22 41 131 125 152 119 182 129 221 80z
m-1040 -84 c73 -54 138 -101 145 -104 7 -3 5 -9 -7 -16 -12 -8 -15 -18 -11
-34 5 -22 -4 -20 -162 44 -100 41 -176 77 -186 90 -25 31 -22 66 7 95 43 44
69 35 214 -75z m592 18 c1 -7 3 -24 4 -36 2 -16 -20 -54 -66 -115 -38 -50 -69
-96 -69 -102 0 -11 6 -5 94 109 60 78 95 101 75 49 -5 -14 -8 -32 -5 -40 3 -7
2 -13 -3 -13 -4 0 -40 -27 -80 -60 -39 -34 -77 -58 -84 -55 -7 4 -3 -1 7 -9
11 -9 15 -16 9 -16 -6 0 -16 6 -22 14 -8 10 -3 30 23 87 18 41 43 102 56 137
17 46 28 62 41 62 11 0 20 -6 20 -12z m517 -94 c12 -14 22 -36 22 -50 0 -14
-10 -35 -22 -47 -20 -20 -54 -27 -256 -56 -128 -19 -235 -31 -238 -28 -3 3 11
9 31 13 20 3 39 13 42 20 3 8 14 14 24 14 10 0 19 7 19 15 0 18 16 27 180 97
79 33 143 55 155 52 11 -3 30 -17 43 -30z m-1167 -43 c79 -32 155 -62 169 -66
14 -4 42 -26 64 -48 l39 -40 -36 7 c-34 6 -414 56 -429 56 -21 0 -48 43 -48
75 0 43 29 75 69 75 15 0 93 -26 172 -59z m733 -26 c4 -14 11 -25 16 -25 32 0
-10 -49 -42 -50 -10 0 -18 -3 -18 -8 0 -12 -58 -34 -77 -29 -14 3 -11 7 12 16
52 20 131 61 105 55 -48 -12 -160 -67 -154 -75 3 -5 -5 -13 -18 -18 -13 -6
-17 -10 -10 -10 18 -1 15 -25 -8 -51 -11 -13 -20 -19 -20 -15 0 5 -5 4 -11 -2
-7 -7 1 -38 30 -106 23 -53 41 -108 41 -122 0 -30 14 -61 43 -92 12 -14 18
-30 14 -43 -3 -12 1 -38 10 -58 14 -33 13 -39 -2 -65 -10 -17 -27 -39 -38 -50
-19 -19 -20 -19 -12 -1 15 35 17 152 2 187 -33 75 -37 90 -37 130 0 28 -12 68
-35 116 -41 85 -42 93 -14 130 12 16 19 34 15 39 -3 6 3 14 15 17 14 5 18 10
10 14 -7 5 5 19 32 39 24 17 63 47 87 67 50 42 56 43 64 10z m456 -97 c28 -31
26 -79 -5 -108 l-25 -24 -290 35 c-160 19 -290 37 -290 41 0 8 4 9 280 46 275
38 303 38 330 10z m-1145 -14 c121 -15 221 -28 223 -29 2 -2 -1 -13 -8 -24 -7
-14 -21 -21 -39 -21 -16 0 -106 -11 -201 -25 -213 -31 -233 -31 -260 -3 -41
44 -13 128 43 128 12 0 121 -12 242 -26z m450 -44 c0 -22 -39 -19 -43 3 -3 15
1 18 20 15 12 -2 23 -10 23 -18z m-97 4 c37 -10 25 -19 -28 -19 -33 0 -50 4
-50 13 0 13 39 16 78 6z m31 -45 c32 -19 33 -22 26 -67 -9 -66 -12 -75 -39
-94 -24 -17 -24 -17 6 53 16 39 28 75 26 81 -3 7 -19 -25 -37 -70 -25 -61 -38
-82 -52 -82 -10 0 -23 8 -28 19 -17 30 5 82 51 124 24 21 34 33 22 28 -11 -5
-26 -17 -34 -25 -15 -19 -30 -21 -30 -3 0 7 15 21 33 30 30 17 13 18 -25 2
-13 -5 -18 -2 -18 9 0 23 57 21 99 -5z m432 -14 c151 -19 277 -35 281 -35 19
0 48 -47 48 -76 0 -36 -37 -74 -72 -74 -18 0 -534 202 -546 214 -8 9 -4 9 289
-29z m-553 9 c-2 -11 -83 -50 -236 -115 -250 -105 -261 -107 -296 -57 -21 30
-20 61 3 89 17 22 41 27 263 60 133 20 249 37 256 38 8 0 12 -6 10 -15z m171
-118 c-15 -16 -18 -2 -11 59 l6 60 7 -55 c4 -31 4 -59 -2 -64z m367 7 c133
-54 248 -104 257 -111 55 -46 4 -145 -69 -130 -21 4 -462 330 -463 342 -1 12
3 10 275 -101z m-289 40 c49 -72 54 -86 46 -124 -5 -29 -9 -23 -49 71 -24 56
-44 104 -44 106 0 12 12 -2 47 -53z m-256 -9 c-11 -8 -98 -75 -193 -149 -184
-143 -204 -152 -252 -114 -29 23 -36 73 -13 102 6 9 103 54 215 101 111 47
215 92 230 100 25 13 27 13 30 -6 2 -12 -5 -26 -17 -34z m717 -331 c3 -34 -1
-44 -24 -62 -33 -26 -65 -27 -92 -3 -40 34 -332 414 -332 431 0 6 100 -65 223
-158 220 -167 222 -168 225 -208z m-713 297 c-4 -11 -7 -31 -9 -43 -1 -13 -45
-79 -97 -148 -53 -68 -106 -138 -119 -156 -13 -18 -36 -35 -52 -38 -57 -13
-111 51 -88 104 9 19 348 296 368 300 2 1 0 -8 -3 -19z m216 -32 c7 -12 16
-49 20 -83 13 -96 21 -128 35 -143 8 -7 14 -17 14 -21 0 -12 -29 -35 -36 -28
-3 3 -14 65 -25 138 -11 74 -22 135 -25 138 -9 9 -3 -52 17 -191 11 -79 24
-168 29 -198 5 -36 4 -60 -3 -68 -8 -10 -7 -16 3 -22 12 -7 10 -14 -10 -35
-33 -35 -94 -32 -122 5 -19 26 -19 29 7 226 14 111 25 217 25 237 0 35 5 40
57 66 1 1 8 -9 14 -21z m-110 -252 c-32 -252 -38 -266 -101 -268 -25 -1 -39 6
-57 26 -12 15 -23 34 -23 43 0 8 33 98 74 199 54 132 82 190 103 208 15 13 29
23 30 22 2 -1 -10 -105 -26 -230z m-45 200 c5 -7 -160 -384 -173 -393 -45 -33
-123 7 -123 62 0 18 38 77 121 186 113 149 122 159 147 153 15 -4 27 -7 28 -8z
m399 -140 c63 -82 118 -160 121 -173 10 -39 -24 -77 -73 -81 -28 -2 -44 2 -55
15 -21 23 -98 198 -98 223 0 10 -5 22 -10 25 -6 3 -17 19 -25 35 -18 35 -10
113 11 108 7 -2 65 -70 129 -152z m-35 -258 c0 -29 -45 -68 -78 -68 -17 0 -40
9 -53 19 -23 18 -23 20 -6 38 9 11 17 23 17 27 0 4 16 26 35 49 19 22 35 48
35 56 1 22 50 -98 50 -121z"/>
<path d="M1454 1428 c-43 -48 -86 -109 -81 -114 4 -5 80 88 101 124 11 19 1
14 -20 -10z"/>
<path d="M566 2319 c-18 -14 -26 -30 -26 -50 0 -34 16 -69 31 -69 6 0 6 6 0
18 -21 39 61 119 84 82 3 -6 -3 -24 -15 -40 -18 -25 -20 -34 -9 -46 18 -22 49
10 49 52 0 35 -37 74 -70 74 -10 0 -29 -9 -44 -21z"/>
<path d="M793 2329 c-7 -7 -3 -18 14 -35 17 -18 24 -33 20 -50 -6 -32 -1 -31
39 12 38 40 40 46 20 64 -12 9 -17 8 -28 -9 -9 -15 -15 -17 -25 -9 -7 6 -13
17 -13 24 0 17 -12 18 -27 3z"/>
<path d="M2501 2276 c-17 -20 -2 -48 23 -44 24 3 34 37 14 49 -18 12 -24 11
-37 -5z"/>
<path d="M2423 2214 c-3 -8 2 -23 11 -32 15 -15 17 -15 32 0 21 21 11 48 -16
48 -11 0 -23 -7 -27 -16z"/>
<path d="M674 2206 c-24 -18 -11 -48 18 -44 14 2 24 11 26 24 4 26 -20 37 -44
20z"/>
<path d="M470 2186 c0 -20 28 -28 50 -14 15 10 22 10 32 0 9 -9 8 -12 -5 -12
-24 0 -50 -53 -34 -69 9 -10 8 -12 -8 -9 -13 2 -22 14 -25 33 -3 19 -12 31
-24 33 -16 3 -18 0 -12 -25 21 -89 146 -80 146 10 0 20 -8 41 -18 50 -23 21
-102 23 -102 3z"/>
<path d="M2547 2183 c-13 -13 -7 -35 8 -29 10 4 21 -7 35 -34 11 -22 16 -40
10 -40 -6 0 -13 7 -16 15 -10 25 -25 17 -18 -10 3 -14 4 -25 0 -25 -8 0 -47
78 -44 87 2 5 -1 10 -7 13 -5 3 -14 -7 -19 -22 -19 -55 40 -118 85 -90 29 19
37 15 60 -29 18 -37 19 -43 6 -56 -19 -19 -43 -8 -27 12 8 10 8 19 0 34 -13
26 -31 27 -61 2 l-23 -18 31 -32 c38 -37 66 -39 98 -6 34 33 32 70 -4 104 -18
17 -28 37 -28 54 0 46 -61 95 -86 70z"/>
<path d="M331 2138 c0 -10 -15 -25 -31 -33 -44 -23 -57 -57 -36 -90 10 -15 26
-25 40 -25 30 0 72 33 62 48 -11 19 -34 14 -41 -8 -7 -21 -45 -29 -45 -9 0 18
21 53 42 70 13 10 18 24 15 40 -2 13 -5 16 -6 7z"/>
<path d="M416 1998 c-14 -18 -26 -28 -26 -22 0 5 5 15 12 22 6 6 8 15 4 19 -4
5 -17 -3 -27 -16 -18 -22 -18 -26 -5 -40 14 -14 19 -12 49 17 38 37 47 39 47
12 0 -13 -7 -20 -20 -20 -23 0 -46 -40 -37 -64 9 -22 39 -20 70 4 25 20 26 20
70 1 33 -14 48 -16 56 -8 17 17 13 27 -13 27 -60 0 -84 11 -90 43 -13 65 -50
75 -90 25z"/>
<path d="M2636 1889 c-51 -40 -23 -129 42 -129 15 0 37 7 49 15 26 18 36 54
17 62 -21 8 -67 -25 -60 -44 4 -9 1 -13 -6 -11 -6 2 -17 22 -25 43 -11 34 -11
41 2 54 13 13 17 13 33 -2 10 -9 26 -17 35 -17 29 0 19 28 -14 39 -42 14 -42
14 -73 -10z"/>
<path d="M2806 1873 c-29 -46 -41 -83 -27 -83 6 0 11 4 11 10 0 5 14 25 30 43
30 34 39 67 20 67 -5 0 -21 -17 -34 -37z"/>
<path d="M210 1852 c-28 -23 -39 -111 -20 -166 11 -33 13 -35 25 -20 11 16 21
16 116 5 79 -9 108 -16 120 -31 15 -18 18 -17 63 29 70 71 83 144 29 157 -18
5 -30 1 -46 -17 -12 -12 -14 -17 -5 -10 23 17 48 7 48 -20 0 -26 -58 -86 -93
-94 -15 -4 -71 -1 -124 6 l-98 14 -3 55 c-2 36 2 62 12 75 14 19 15 19 35 1
16 -15 21 -16 21 -5 0 39 -44 50 -80 21z"/>
<path d="M332 1844 c-12 -8 -20 -20 -17 -25 10 -15 37 -11 50 8 8 11 18 14 31
8 17 -7 17 -9 2 -12 -22 -5 -34 -59 -18 -78 10 -12 9 -15 -9 -15 -14 0 -21 6
-21 20 0 20 -32 44 -44 33 -11 -11 -7 -19 20 -47 33 -33 68 -33 99 -1 34 33
33 77 -1 104 -32 25 -61 27 -92 5z"/>
<path d="M2512 1853 c-21 -8 -34 -51 -22 -73 26 -48 93 -45 106 5 12 50 -34
88 -84 68z m50 -48 c4 -17 3 -34 -2 -39 -15 -15 -40 13 -40 46 0 39 30 35 42
-7z"/>
<path d="M2582 1707 c-9 -10 -8 -18 2 -32 18 -25 48 -13 44 17 -4 27 -30 35
-46 15z"/>
<path d="M2630 1355 c-5 -14 -13 -37 -16 -50 -6 -23 -11 -25 -68 -25 l-61 -1
27 -20 c14 -11 36 -27 48 -37 l22 -18 -20 -52 c-11 -28 -18 -52 -15 -52 2 0
24 14 48 30 24 17 48 30 53 30 4 0 26 -13 48 -30 21 -16 42 -30 46 -30 5 0 -1
24 -12 53 -11 28 -20 54 -20 57 0 3 18 16 40 30 22 14 40 28 40 32 0 5 -24 8
-54 8 l-54 0 -17 50 c-9 28 -19 50 -21 50 -2 0 -9 -11 -14 -25z m11 -98 c-3
-15 -6 -16 -17 -5 -10 10 -10 21 -1 51 l12 38 5 -33 c3 -18 4 -41 1 -51z m94
2 c-11 -5 -33 -14 -50 -20 -28 -10 -28 -12 -9 -19 11 -4 28 -27 37 -51 l17
-44 -40 45 c-25 29 -40 39 -40 29 0 -16 -70 -78 -70 -63 0 4 11 22 25 40 29
38 31 49 9 40 -15 -6 -90 31 -81 40 2 2 25 -2 51 -10 51 -16 71 -13 80 10 4 9
20 14 48 13 34 0 39 -2 23 -10z"/>
<path d="M385 1321 l-16 -50 -62 -3 -62 -3 47 -30 c27 -16 48 -36 48 -42 0 -7
-7 -31 -16 -53 -9 -23 -14 -43 -12 -45 3 -3 23 8 46 25 23 16 46 30 50 30 5 0
28 -14 51 -31 24 -17 45 -28 47 -26 3 2 -4 28 -16 56 l-20 51 46 33 46 32 -60
3 -60 3 -12 45 c-7 24 -16 47 -21 49 -4 3 -15 -17 -24 -44z m44 -78 c9 11 28
17 55 16 l41 0 -40 -15 c-22 -7 -48 -18 -57 -24 -14 -8 -21 -5 -34 15 -15 23
-15 31 -3 68 l14 42 5 -59 c4 -52 7 -57 19 -43z m-66 -9 c30 -7 35 -19 12 -28
-8 -3 -32 6 -53 21 -30 21 -32 24 -12 19 14 -4 37 -9 53 -12z m16 -86 c-45
-38 -48 -28 -8 24 28 35 35 39 38 23 2 -13 -8 -29 -30 -47z m93 22 c9 -19 17
-39 17 -45 1 -11 -42 38 -60 68 -9 16 -8 18 8 15 10 -2 26 -19 35 -38z"/>
<path d="M2430 833 c0 -6 27 -34 60 -63 33 -29 60 -57 60 -64 0 -16 -42 -56
-59 -56 -7 0 -9 -4 -6 -10 10 -16 51 -11 68 8 30 32 21 64 -30 113 -70 66 -93
83 -93 72z"/>
<path d="M575 779 l-70 -50 -22 26 c-13 14 -23 33 -23 41 0 26 -25 9 -28 -18
-2 -18 5 -32 24 -47 15 -11 32 -21 38 -21 17 0 156 99 156 111 0 12 4 14 -75
-42z"/>
<path d="M629 776 c-18 -8 -25 -21 -27 -49 -3 -39 12 -49 36 -25 17 17 15 38
-3 38 -8 0 -15 5 -15 10 0 20 35 9 54 -17 l20 -27 -49 -43 -48 -44 -25 23
c-13 13 -28 32 -32 43 -7 18 -9 19 -15 2 -18 -44 30 -96 74 -79 11 4 40 26 65
50 34 31 46 51 46 71 0 44 -41 67 -81 47z"/>
<path d="M736 705 c-25 -31 -46 -65 -46 -76 0 -43 73 -78 97 -46 6 6 13 27 16
45 5 24 3 34 -9 39 -27 10 -38 -12 -19 -40 10 -16 12 -27 6 -32 -12 -7 -71 34
-71 49 1 13 77 96 88 96 14 0 62 -51 57 -61 -4 -5 -2 -9 3 -9 17 0 22 31 9 58
-9 21 -21 28 -49 30 -33 3 -40 -1 -82 -53z"/>
<path d="M2340 736 c0 -5 25 -38 56 -73 l57 -64 -23 -24 c-13 -14 -30 -25 -38
-25 -21 0 -8 -25 16 -28 28 -4 62 31 62 64 0 19 -19 45 -65 93 -35 36 -65 62
-65 57z"/>
<path d="M2197 602 c-24 -26 -21 -68 5 -86 31 -22 45 -20 73 9 30 29 31 49 5
75 -25 25 -62 26 -83 2z m76 -17 c7 -15 -36 -55 -59 -55 -23 0 -16 27 12 49
32 25 40 26 47 6z"/>
<path d="M816 581 c-13 -14 -16 -28 -11 -50 7 -32 23 -39 43 -19 17 17 15 35
-4 42 -15 6 -15 4 -3 -11 13 -16 12 -17 -3 -4 -22 17 -23 27 -3 35 8 3 27 -5
42 -18 l27 -23 -35 -48 c-19 -27 -39 -50 -45 -52 -6 -2 -26 10 -44 27 -38 35
-40 36 -40 12 0 -52 68 -82 104 -46 31 31 76 103 76 122 0 46 -72 69 -104 33z"/>
<path d="M2156 523 c15 -27 34 -57 41 -68 7 -11 13 -27 13 -37 0 -20 -55 -52
-72 -42 -6 4 -9 1 -6 -7 7 -21 62 -23 82 -4 9 9 16 28 16 41 0 28 -76 164 -92
164 -5 0 3 -21 18 -47z"/>
<path d="M1007 456 c-4 -12 104 -59 112 -49 4 3 0 8 -6 10 -7 3 -33 15 -58 27
-27 14 -46 19 -48 12z"/>
<path d="M1243 413 c-26 -10 -12 -29 21 -30 41 -1 56 -9 56 -30 0 -11 -8 -14
-32 -11 -18 3 -41 8 -50 13 -27 11 -23 -20 4 -39 30 -21 54 -20 78 4 49 49
-10 121 -77 93z"/>
<path d="M1900 402 c-56 -20 -53 -19 -45 -32 4 -7 11 -8 18 -2 7 6 31 16 55
23 23 6 42 16 42 21 0 11 -17 9 -70 -10z"/>
<path d="M1378 389 c-33 -19 -20 -34 29 -34 36 0 48 -4 48 -15 0 -11 -12 -15
-51 -15 l-51 1 21 -71 c15 -46 27 -71 39 -73 14 -3 13 4 -7 51 l-24 54 23 -5
c27 -5 65 28 65 58 0 25 -34 60 -57 60 -10 0 -26 -5 -35 -11z"/>
<path d="M1647 382 c-38 -42 1 -114 52 -97 20 6 20 6 -1 -45 -20 -48 -19 -75
2 -54 12 12 51 147 45 153 -3 2 -11 -2 -19 -8 -20 -17 -81 -10 -81 9 0 11 13
16 48 18 50 3 60 15 28 32 -29 15 -56 12 -74 -8z"/>
<path d="M1506 374 c-22 -21 -20 -67 2 -87 25 -23 32 -21 32 6 0 26 -10 42
-30 50 -8 3 6 6 33 6 36 1 47 -3 47 -14 0 -9 -7 -18 -15 -21 -8 -4 -15 -15
-15 -25 0 -27 26 -13 40 22 10 24 10 33 -4 54 -19 29 -66 34 -90 9z"/>
</g>
</svg>
